# xmcd CD database file
#
# Track frame offsets:
#	150
#	28497
#	54209
#	90353
#	119874
#	155607
#	183489
#	215814
#
# Disc length: 3276 seconds
#
# Revision: 0
# Processed by: cddbd v1.5.1PL0 Copyright (c) Steve Scherf et al.
# Submitted via: CDex 1.51
#
DISCID=730cca08
DTITLE=Antoine Hervé - summertime
DYEAR=2002
DGENRE=Jazz
TTITLE0=Love for sale
TTITLE1=My folish heart
TTITLE2=Freddy the freeloader
TTITLE3=Solar
TTITLE4=Like someone in love
TTITLE5=summertime
TTITLE6=In your own sweet way
TTITLE7=Caravan
EXTD=YEAR: 2002
EXTT0=
EXTT1=
EXTT2=
EXTT3=
EXTT4=
EXTT5=
EXTT6=
EXTT7=
PLAYORDER=
